<svg width="562" height="517" viewBox="0 0 562 517" fill="none" xmlns="http://www.w3.org/2000/svg">
<path d="M404 13.133C368 13.133 340 41.8 300 40.531L276 165.132L328.558 233.861L343 316L380 301.133C385.424 298.026 417.264 281.834 436 253.133C466.943 205.731 516 217.133 516 165.133C516 150.466 440 13.133 404 13.133Z" fill="#877364"/>
<path d="M236 40.531C196 41.799 168 13.133 132 13.133C96 13.133 20 150.466 20 165.132C20 217.132 67.008 207.132 100 253.132C121.462 283.056 151.492 299.804 156 301.132L189 311C195 307.333 197.667 299.333 202 284L208.915 231.937L260 165.132L236 40.531Z" fill="#877364"/>
<path d="M196.363 362.491C197.96 349.307 204.344 324.674 228 293.132L204 269.132C198.248 281.786 183.224 336.78 190.635 363.059C191.498 366.121 195.98 365.648 196.363 362.491Z" fill="#FFEBD2"/>
<path d="M332.623 269.132L308.623 293.132C332.267 324.657 338.657 349.281 340.258 362.47C340.642 365.632 345.131 366.105 345.994 363.039C353.391 336.753 338.373 281.783 332.623 269.132Z" fill="#FFEBD2"/>
<path d="M380 125.132C380 109.132 365 37.132 268 37.132C171 37.132 156 109.132 156 125.132C156 141.132 196 141.132 204 161.132C204 161.132 204 208.034 204 216.954C204 225.874 196 269.132 196 269.132L228.647 301.779C233.042 362.978 236.528 465.135 252 493.132C262.5 512.132 289.62 518.748 324 485.132C338.049 471.396 346.355 455.792 351.578 445.544C353.966 440.858 352.058 435.161 347.354 432.809C343.169 430.717 338.11 431.961 335.409 435.782C325.997 449.097 304.98 477.101 300 469.133C295.683 462.226 304.778 336.136 307.345 301.788L340 269.132C340 269.132 332 225.874 332 216.954C332 208.034 332 161.132 332 161.132C340 141.132 380 141.132 380 125.132Z" fill="#9F8976"/>
<path d="M188 141.132C179.178 141.132 172 148.31 172 157.132C172 165.954 179.178 173.132 188 173.132C196.822 173.132 204 165.954 204 157.132C204 148.31 196.822 141.132 188 141.132Z" fill="black"/>
<path d="M348 141.132C339.178 141.132 332 148.31 332 157.132C332 165.954 339.178 173.132 348 173.132C356.822 173.132 364 165.954 364 157.132C364 148.31 356.822 141.132 348 141.132Z" fill="black"/>
<path d="M480.208 79.273C448.242 30.077 422.602 5.13199 404 5.13199C385.165 5.13199 368.586 12.19 352.555 19.015C335.688 26.196 319.735 32.978 300.903 32.54C290.475 30.299 279.471 29.132 268 29.132C256.539 29.132 245.529 30.295 235.094 32.54C216.271 32.976 200.312 26.196 183.445 19.015C167.414 12.19 150.835 5.13199 132 5.13199C113.398 5.13199 87.758 30.077 55.792 79.273C37.433 107.529 12 153.085 12 165.132C12 201.008 31.708 212.752 52.572 225.186C65.658 232.984 80.49 241.823 93.794 258.18C133.144 306.561 161.069 315.956 183.197 317.019C183.104 317.592 183.012 318.165 182.924 318.74C178.251 348.989 180.747 369.192 190.344 378.789C191.921 380.366 194.034 381.211 196.173 381.21C197.122 381.21 198.076 381.044 198.991 380.702C204.062 378.805 204.39 374.069 204.63 370.612C205.138 363.294 206.493 343.801 221.677 317.207C222.088 323.549 222.499 330.156 222.921 336.943C226.859 400.367 231.322 472.254 244.999 497.002C250.964 507.796 260.77 514.699 272.61 516.439C274.434 516.707 276.425 516.868 278.578 516.868C290.856 516.868 308.363 511.612 329.594 490.853C345.398 475.4 354.281 457.901 359.587 447.445C360.895 444.868 362.025 442.642 362.861 441.249C364.346 438.774 364.568 435.813 363.468 433.127C362.551 430.885 360.642 426.22 342.009 421.389C338.71 420.534 335.232 421.862 333.342 424.699C324.148 438.506 313.549 451.871 306.834 458.489C306.445 436.523 309.917 375.845 314.295 316.091C330.082 343.253 331.48 363.193 331.994 370.612C332.234 374.07 332.562 378.805 337.633 380.702C338.548 381.044 339.502 381.211 340.451 381.21C342.591 381.21 344.704 380.365 346.281 378.789C355.878 369.192 358.375 348.988 353.701 318.74C353.611 318.155 353.517 317.572 353.423 316.989C375.453 315.78 403.224 306.112 442.208 258.18C455.511 241.823 470.343 232.984 483.43 225.186C504.292 212.752 524 201.009 524 165.132C524 153.085 498.567 107.529 480.208 79.273ZM197.482 330.623C197.8 327.705 198.212 324.564 198.735 321.184C200.977 306.67 204.415 293.127 207.291 283.738L217.517 293.964C208.021 307.503 201.705 319.883 197.482 330.623ZM319.106 293.963L329.332 283.737C332.208 293.126 335.645 306.668 337.888 321.183C338.41 324.563 338.823 327.704 339.14 330.622C334.917 319.882 328.602 307.503 319.106 293.963ZM475.237 211.442C461.715 219.5 444.885 229.529 429.793 248.085C393.329 292.918 369.152 300.548 350.374 301.098C349.576 297.478 348.737 293.991 347.887 290.692C348.014 290.56 348.145 290.433 348.265 290.291C377.709 255.353 396 204.33 396 157.132C396 131.019 390.475 107.947 379.595 88.531C378.461 85.334 378.793 81.426 380.553 77.727C382.605 73.414 386.289 70.062 390.41 68.761C394.623 67.431 396.96 62.937 395.629 58.723C394.299 54.51 389.805 52.171 385.591 53.504C377.19 56.157 370.087 62.481 366.104 70.855C362.379 78.687 361.916 87.406 364.834 94.779C364.862 94.85 364.903 94.912 364.933 94.982C365.011 95.163 365.102 95.339 365.194 95.517C365.273 95.668 365.343 95.826 365.43 95.97C375.097 113.045 380 133.62 380 157.134C380 197.25 365.725 240.303 342.314 271.995C341.592 269.938 340.921 268.186 340.33 266.794C339.157 260.229 332 219.273 332 197.134C332 192.716 328.418 189.134 324 189.134C319.582 189.134 316 192.716 316 197.134C316 218.445 321.895 254.234 324.017 266.427L304.485 285.959C302.028 287.165 300.251 289.591 300.024 292.517C299.991 292.938 296.739 335.074 294.14 377.647C288.734 466.203 291.22 470.179 293.216 473.374C295.232 476.6 298.543 478.481 302.299 478.535C307.573 478.632 314.728 475.793 331.215 454.835C336.075 448.656 340.465 442.534 343.312 438.454C344.174 438.739 345.004 439.029 345.772 439.312C345.624 439.603 345.473 439.901 345.319 440.205C340.459 449.781 332.324 465.808 318.407 479.414C302.591 494.878 287.155 502.404 274.934 500.61C266.242 499.333 261.472 493.735 259.001 489.264C247.066 467.668 242.34 391.539 238.889 335.952C237.905 320.111 236.976 305.148 235.974 292.501C235.973 292.48 235.968 292.459 235.966 292.438C235.958 292.35 235.945 292.262 235.935 292.174C235.922 292.066 235.907 291.958 235.89 291.851C235.879 291.784 235.871 291.715 235.859 291.649C235.844 291.568 235.822 291.489 235.805 291.408C235.782 291.304 235.757 291.201 235.73 291.097C235.711 291.025 235.697 290.95 235.676 290.878C235.655 290.805 235.626 290.734 235.602 290.662C235.57 290.561 235.535 290.461 235.498 290.361C235.47 290.286 235.447 290.208 235.417 290.134C235.391 290.07 235.358 290.009 235.331 289.945C235.287 289.843 235.241 289.743 235.192 289.643C235.157 289.57 235.126 289.494 235.088 289.422C235.06 289.369 235.026 289.318 234.997 289.265C234.996 289.263 234.995 289.261 234.994 289.259C234.937 289.156 234.878 289.055 234.817 288.955C234.774 288.885 234.734 288.812 234.689 288.743C234.661 288.7 234.627 288.66 234.598 288.617C234.594 288.612 234.59 288.607 234.587 288.602C234.52 288.504 234.45 288.407 234.378 288.312C234.325 288.242 234.274 288.17 234.219 288.102C234.185 288.06 234.147 288.021 234.112 287.98C234.112 287.979 234.111 287.979 234.11 287.978C234.036 287.891 233.961 287.805 233.883 287.72C233.817 287.648 233.751 287.575 233.683 287.506C233.673 287.496 233.665 287.486 233.656 287.476L212.561 266.381C214.52 254.253 219.999 218.431 219.999 197.133C219.999 192.715 216.417 189.133 211.999 189.133C207.581 189.133 203.999 192.715 203.999 197.133C203.999 219.252 197.385 260.119 196.27 266.844C195.629 268.357 194.898 270.284 194.107 272.566C170.447 240.82 156 197.489 156 157.132C156 133.616 160.905 113.039 170.574 95.964C170.655 95.831 170.719 95.685 170.792 95.546C170.89 95.36 170.984 95.173 171.066 94.983C171.096 94.913 171.137 94.851 171.166 94.779C174.084 87.406 173.622 78.687 169.896 70.855C165.913 62.481 158.81 56.157 150.409 53.504C146.194 52.172 141.701 54.51 140.371 58.723C139.04 62.936 141.377 67.431 145.59 68.761C149.711 70.062 153.395 73.414 155.447 77.727C157.206 81.426 157.539 85.333 156.405 88.53C145.525 107.948 140 131.02 140 157.132C140 204.323 158.287 255.342 187.725 290.279C188 290.605 188.302 290.894 188.614 291.165C187.804 294.328 187.006 297.661 186.245 301.113C167.38 300.712 143.072 293.41 106.207 248.084C91.115 229.529 74.286 219.5 60.763 211.441C40.373 199.291 28.05 191.946 28 165.292C28.806 159.112 45.696 123.938 70.136 86.568C101.723 38.27 123.203 21.132 132 21.132C147.571 21.132 161.953 27.255 177.178 33.736C185.6 37.321 194.164 40.953 203.222 43.731C196.997 46.909 191.126 50.59 185.659 54.762C182.147 57.442 181.472 62.462 184.152 65.975C186.832 69.488 191.852 70.164 195.365 67.482C207.293 58.381 221.53 51.953 237.416 48.395C237.624 48.357 237.83 48.315 238.032 48.263C247.489 46.194 257.521 45.132 268 45.132C278.51 45.132 288.556 46.205 298.024 48.279C298.208 48.326 298.396 48.362 298.585 48.395C315.07 52.085 329.766 58.861 341.969 68.519C343.439 69.682 345.19 70.247 346.928 70.247C349.289 70.247 351.627 69.206 353.206 67.211C355.948 63.746 355.362 58.715 351.898 55.973C345.985 51.293 339.573 47.221 332.75 43.736C341.818 40.958 350.392 37.325 358.822 33.736C374.048 27.254 388.429 21.132 404 21.132C412.797 21.132 434.277 38.269 465.864 86.568C490.304 123.939 507.194 159.112 508 165.292C507.95 191.946 495.627 199.291 475.237 211.442Z" fill="black"/>
<path d="M143.661 3.42168L142.911 2.5H141.722H18.3703H12.7793L16.5071 6.66688L219.441 233.501L10.1408 466.329L6.39099 470.5H12H136.51H137.681L138.431 469.6L281.29 298.173L424.148 469.6L424.898 470.5H426.069H550H555.619L551.857 466.326L341.984 233.501L545.491 6.6695L549.231 2.5H543.63H417.961H416.782L416.032 3.40975L278.985 169.652L143.661 3.42168Z" fill="#FF0101" stroke="black" stroke-width="5"/>
</svg>
