<svg width="562" height="512" viewBox="0 0 562 512" fill="none" xmlns="http://www.w3.org/2000/svg">
<rect width="562" height="512" fill="white"/>
<path d="M281 12C148.452 12 41 169.073 41 294.961C41 394.206 107.783 444.441 200.996 461.26H361.005C454.217 444.442 521 394.207 521 294.961C521 169.073 413.548 12 281 12Z" fill="#CCCBCD"/>
<path d="M281 380C205.889 380 145 319.111 145 244V140C145 117.909 162.909 100 185 100H377C399.091 100 417 117.909 417 140V244C417 319.111 356.111 380 281 380Z" fill="#9F9CA1"/>
<path d="M281 441C253.456 440.395 191.011 434.84 185 403.375V404C185 457.019 227.98 500 281 500C334.02 500 377 457.019 377 404V400.313C371.958 434.034 296.01 441.33 281 441Z" fill="#464655"/>
<path d="M368.999 90L305 88L281 98L257 88L193.002 90L146 106V170C146 187.756 170.667 203.223 185 211.526V368V393C184.356 396.739 184.392 400.189 185 403.375C191.011 434.84 253.456 440.395 281 441C296.01 441.33 371.958 434.034 377 400.313C377.346 398 377.364 395.566 377 393V211.526C391.333 203.223 417 187.756 417 170V106L368.999 90Z" fill="#6B676E"/>
<path d="M225 140C233.837 140 241 132.837 241 124C241 115.163 233.837 108 225 108C216.163 108 209 115.163 209 124C209 132.837 216.163 140 225 140Z" fill="#FF825F"/>
<path d="M337 140C345.837 140 353 132.837 353 124C353 115.163 345.837 108 337 108C328.163 108 321 115.163 321 124C321 132.837 328.163 140 337 140Z" fill="#FF825F"/>
<path d="M393 88C388.383 88 382.469 85.344 375.617 82.266C365.445 77.688 352.789 72 337 72C321.211 72 308.555 77.688 298.383 82.266C291.531 85.344 285.617 88 281 88C276.383 88 270.469 85.344 263.617 82.266C253.445 77.688 240.789 72 225 72C209.211 72 196.555 77.688 186.383 82.266C179.531 85.344 173.617 88 169 88C162.375 88 157 93.375 157 100C157 106.625 162.375 112 169 112C178.766 112 187.641 108.008 196.219 104.156C205.141 100.148 214.359 96 225 96C249 96 257 124 281 124C305 124 313 96 337 96C347.641 96 356.859 100.148 365.781 104.156C374.359 108.008 383.234 112 393 112C399.625 112 405 106.625 405 100C405 93.375 399.625 88 393 88Z" fill="#464655"/>
<path d="M425 72C425 72 445 40 457 40C469 40 473 136 473 136" fill="#6B676E"/>
<path d="M105 40C93 40 89 136 89 136L137 72C137 72 117 40 105 40Z" fill="#6B676E"/>
<path d="M303.906 456.076C295.233 457.274 287.098 457.933 281 457.933C274.902 457.933 266.768 457.273 258.094 456.076C253.721 455.472 249.68 458.53 249.075 462.907C248.471 467.283 251.529 471.322 255.906 471.926C265.281 473.221 274.194 473.934 281 473.934C287.806 473.934 296.719 473.221 306.094 471.926C310.471 471.322 313.529 467.283 312.925 462.907C312.32 458.53 308.282 455.471 303.906 456.076Z" fill="black"/>
<path d="M261.833 346.425C257.82 343.612 249.469 337.758 248.863 334.526C248.049 330.183 243.871 327.317 239.526 328.137C235.183 328.951 232.323 333.132 233.137 337.474C234.945 347.117 244.762 353.997 252.649 359.526C254.353 360.72 256.584 362.284 257.67 363.212C258.907 366.031 261.723 368 264.999 368C269.417 368 272.999 364.418 272.999 360C273 354.252 268.316 350.969 261.833 346.425Z" fill="black"/>
<path d="M322.474 328.137C318.13 327.317 313.951 330.183 313.137 334.526C312.531 337.758 304.18 343.611 300.167 346.425C293.684 350.969 289 354.252 289 360C289 364.418 292.582 368 297 368C300.276 368 303.092 366.031 304.329 363.212C305.415 362.285 307.646 360.721 309.35 359.526C317.238 353.997 327.055 347.116 328.862 337.474C329.677 333.132 326.817 328.951 322.474 328.137Z" fill="black"/>
<path d="M249 128C249 114.766 238.234 104 225 104C211.766 104 201 114.766 201 128C201 141.234 211.766 152 225 152C238.234 152 249 141.234 249 128ZM225 136C220.589 136 217 132.411 217 128C217 123.589 220.589 120 225 120C229.411 120 233 123.589 233 128C233 132.411 229.411 136 225 136Z" fill="black"/>
<path d="M337 104C323.766 104 313 114.766 313 128C313 141.234 323.766 152 337 152C350.234 152 361 141.234 361 128C361 114.766 350.234 104 337 104ZM337 136C332.589 136 329 132.411 329 128C329 123.589 332.589 120 337 120C341.411 120 345 123.589 345 128C345 132.411 341.411 136 337 136Z" fill="black"/>
<path d="M379.663 88.456C378.684 88.111 355.218 80 313 80C298.312 80 287.838 83.487 281 90.631C274.162 83.487 263.688 80 249 80C206.782 80 183.316 88.111 182.337 88.456C178.177 89.924 176 94.479 177.458 98.642C178.917 102.805 183.477 104.999 187.645 103.55C187.862 103.475 209.808 96 249 96C259.188 96 266.16 98.009 269.72 101.971C271.33 103.763 272.393 106.143 272.928 109.144C272.568 112.6 272.595 116.362 273.01 120.451C272.968 124.465 272.945 141.973 273.001 224.005C273.004 228.422 276.585 232 281.001 232C281.002 232 281.005 232 281.006 232C285.424 231.997 289.004 228.413 289.001 223.995C288.982 196.606 288.945 125.853 288.994 120.489C289.413 116.38 289.438 112.605 289.076 109.135C289.61 106.139 290.673 103.762 292.282 101.972C295.84 98.009 302.812 96 313 96C352.192 96 374.138 103.475 374.337 103.544C378.504 105.013 383.073 102.829 384.544 98.663C386.015 94.497 383.829 89.927 379.663 88.456Z" fill="black"/>
<path d="M480.921 134.084C480.65 128.323 479.588 107.64 477.457 87.171C475.972 72.915 474.257 61.49 472.36 53.213C470.782 46.328 467.499 32 457 32C449.285 32 440.798 38.023 430.291 50.955C427.304 54.632 424.636 58.282 422.57 61.24C408.635 48.313 393.91 37.219 378.493 28.096C346.985 9.453 314.183 0 281 0C247.817 0 215.015 9.453 183.507 28.097C168.09 37.22 153.365 48.314 139.43 61.241C137.364 58.283 134.696 54.633 131.709 50.956C121.202 38.023 112.715 32 105 32C94.501 32 91.218 46.328 89.64 53.213C87.743 61.49 86.028 72.916 84.543 87.171C82.411 107.64 81.35 128.323 81.079 134.084C50.568 185.125 33 243.3 33 296C33 346.229 48.97 387.218 80.467 417.828C108.613 445.181 148.678 463.787 199.55 473.129C199.712 473.159 199.873 473.173 200.034 473.192C219.115 496.842 248.318 512 281 512C313.68 512 342.883 496.843 361.963 473.196C362.125 473.176 362.287 473.159 362.449 473.13C413.321 463.788 453.387 445.182 481.532 417.829C513.03 387.218 529 346.229 529 296C529 243.3 511.432 185.125 480.921 134.084ZM454.577 49.09C456.246 53.49 459.297 65.035 462.079 94.211C462.505 98.682 462.88 103.098 463.206 107.295C461.182 104.517 459.13 101.76 457.025 99.047C449.704 89.61 442.073 80.783 434.157 72.583C441.305 61.9 449.729 52.271 454.577 49.09ZM281 16C321.127 16 360.841 31.315 396.771 60C369.47 53.509 319.093 48 281 48C242.906 48 192.529 53.51 165.229 60C201.159 31.316 240.873 16 281 16ZM99.92 94.211C102.697 65.091 105.742 53.535 107.413 49.115C112.315 52.326 120.716 61.93 127.841 72.583C119.925 80.783 112.295 89.61 104.973 99.047C102.869 101.76 100.817 104.517 98.792 107.295C99.12 103.098 99.494 98.683 99.92 94.211ZM281 496C239.947 496 205.374 467.742 195.699 429.656C223.066 442.126 260.768 448 281 448C301.232 448 338.934 442.126 366.301 429.656C356.626 467.742 322.053 496 281 496ZM374.066 454.379C381.058 440.408 385 424.657 385 408V240C385 239.793 384.991 239.577 384.975 239.372C384.224 229.686 385.933 217.112 389.588 214.554C393.208 212.02 394.088 207.032 391.554 203.412C389.02 199.793 384.032 198.912 380.412 201.446C367.593 210.419 368.582 234.672 369 240.306V408C369 408.754 368.99 409.505 368.972 410.255C345.387 424.448 303.127 432 281 432C258.873 432 216.613 424.448 193.029 410.255C193.01 409.505 193 408.754 193 408V240.307C193.417 234.672 194.407 210.42 181.588 201.447C177.969 198.914 172.981 199.794 170.446 203.413C167.912 207.033 168.792 212.021 172.412 214.555C176.066 217.113 177.776 229.687 177.025 239.363C177.008 239.574 177 239.787 177 240V408C177 424.657 180.942 440.408 187.934 454.379C121.428 438.946 49 398.58 49 296C49 234.198 74.65 164.237 117.615 108.855C123.983 100.647 130.576 92.962 137.351 85.781C137.148 86.486 137.033 87.229 137.033 88V160C137.033 161.735 137.024 163.338 137.015 164.829C136.93 179.381 136.891 186.023 147.087 197.351C148.667 199.106 150.847 199.999 153.036 199.999C154.943 199.999 156.856 199.321 158.385 197.945C161.669 194.989 161.935 189.931 158.98 186.647C152.928 179.922 152.936 178.502 153.015 164.921C153.024 163.401 153.034 161.767 153.034 159.998V103.983C156.11 104.156 159.144 102.538 160.626 99.613C162.623 95.672 161.047 90.858 157.105 88.861C154.509 87.546 153.176 85.086 153.201 83.336C153.224 81.758 154.467 80.378 156.895 79.236C169.684 73.221 230.37 64 281 64C331.63 64 392.317 73.221 405.106 79.239C407.534 80.382 408.777 81.761 408.8 83.339C408.825 85.089 407.493 87.548 404.896 88.864C400.955 90.861 399.379 95.675 401.376 99.616C402.786 102.398 405.599 104.002 408.519 104.002C408.679 104.002 408.84 103.984 409 103.974V160C409 161.769 409.01 163.403 409.019 164.923C409.098 178.504 409.106 179.923 403.054 186.649C400.098 189.933 400.365 194.991 403.649 197.947C405.178 199.323 407.091 200.001 408.998 200.001C411.187 200.001 413.367 199.108 414.947 197.353C425.143 186.024 425.104 179.383 425.019 164.831C425.009 163.338 425 161.735 425 160V88C425 87.246 424.889 86.52 424.694 85.829C431.454 92.997 438.031 100.665 444.385 108.855C487.35 164.237 513 234.198 513 296C513 398.58 440.572 438.946 374.066 454.379Z" fill="black"/>
<path d="M143.661 23.4217L142.911 22.5H141.722H18.3703H12.7793L16.5071 26.6669L219.441 253.501L10.1408 486.329L6.39099 490.5H12H136.51H137.681L138.431 489.6L281.29 318.173L424.148 489.6L424.898 490.5H426.069H550H555.619L551.857 486.326L341.984 253.501L545.491 26.6695L549.231 22.5H543.63H417.961H416.782L416.032 23.4098L278.985 189.652L143.661 23.4217Z" fill="#FF0101" stroke="black" stroke-width="5"/>
</svg>
