<svg width="562" height="512" viewBox="0 0 562 512" fill="none" xmlns="http://www.w3.org/2000/svg">
<rect width="562" height="512" fill="white"/>
<path d="M171 248L192 392C194.476 412.917 200.867 441.011 214.871 453.688L251.667 487V248H171Z" fill="#FFD296"/>
<path d="M391 248L369 391C366.524 411.917 361.133 441.011 347.129 453.688L310.333 487V248H391Z" fill="#FFD296"/>
<path d="M137 144L54.292 83.635C44.819 77.077 31.977 84.53 33.065 96C36.61 133.368 67.0091 185.658 89 200C100.5 207.5 137 216 137 216L137.848 214.87C140.61 202.669 147.65 191.544 157 181C157 181 137 178.333 137 144Z" fill="#FFD296"/>
<path d="M393 184V264C410.673 264 425 246.091 425 224C425 201.909 410.673 184 393 184Z" fill="#FFB964"/>
<path d="M425 224C425 201.383 400.131 176.991 370.483 157.517C370.365 157.393 370.251 157.263 370.132 157.139L377 160L369 40C367 20 354.673 8 337 8C319.327 8 305 22.327 305 40V96L281 120L257 96V40C257 22.327 242.673 8 225 8C207.327 8 195 20 193 40L185.941 159.999L190.932 157.899C161.543 177.31 137 201.531 137 224C137 280 217 256 233 280C249 304 225 400 225 432C225 464 249 488 281 488C313 488 337 464 337 432C337 400 313 304 329 280C345 256 425 280 425 224Z" fill="#FFB964"/>
<path d="M317.565 424.002C305.494 433.982 291.667 440 281 440C270.333 440 256.506 433.982 244.435 424.002H233.745C233.255 427.897 233 431.906 233 436C233 473.556 254.49 504 281 504C307.51 504 329 473.556 329 436C329 431.906 328.745 427.897 328.255 424.002H317.565Z" fill="#C3875A"/>
<path d="M507.708 83.635L425 144C425 178.333 401 184 401 184C414.333 192 422.333 202.667 425 216C425 216 461.5 207.5 473 200C494.991 185.658 525.39 133.368 528.935 96C530.023 84.53 517.181 77.077 507.708 83.635Z" fill="#FFD296"/>
<path d="M397 187.507C366.865 151.791 326.644 120.519 282.072 120.023C281.705 120.008 281.347 120 281 120C280.639 120 280.265 120.01 279.882 120.026C238.548 120.582 195.106 151.826 165 187.507H194.95C208.248 190.455 221.325 198.354 229.448 216C244.177 248 266.271 256 281.001 256C295.731 256 317.825 248 332.554 216C340.677 198.354 353.753 190.455 367.052 187.507H397Z" fill="#CD965F"/>
<path d="M153.498 192.299L158.604 191.978L159.686 189.64C159.686 189.64 129.631 167.711 132.105 137L88.918 139.084C81.901 139.422 77.293 145.77 79.601 151.826C96.953 197.365 153.498 192.299 153.498 192.299Z" fill="#CD965F"/>
<path d="M409.187 192.299L404.081 191.978L403 189.64C403 189.64 433.055 167.711 430.581 137L473.768 139.084C480.785 139.422 485.393 145.77 483.085 151.826C465.731 197.365 409.187 192.299 409.187 192.299Z" fill="#CD965F"/>
<path d="M335.33 336.042L332.687 336.041C327.148 345.581 316.826 352 305 352C298.134 352 291.824 349.793 286.642 346.086C283.201 343.625 278.8 343.625 275.359 346.086C270.176 349.793 263.867 352 257 352C245.156 352 234.821 345.562 229.288 335.999L226.696 335.998C220.551 346.438 217 358.779 217 372C217 392.863 229.346 411.528 244.435 424.002C256.506 433.982 270.333 440 281 440C291.667 440 305.494 433.982 317.565 424.002C332.654 411.528 345 392.863 345 372C345 358.797 341.458 346.473 335.33 336.042Z" fill="#FFB964"/>
<path d="M257 352C263.867 352 270.176 349.793 275.358 346.086C278.799 343.625 283.2 343.625 286.641 346.086C291.824 349.793 298.134 352 305 352C316.826 352 327.148 345.581 332.687 336.041C336.569 329.355 338.105 321.138 336.151 312.515C333.555 301.058 324.32 291.736 312.904 288.963C300.127 285.859 288.431 290.534 280.999 299.036C273.567 290.534 261.871 285.859 249.094 288.963C237.679 291.735 228.444 301.058 225.847 312.515C223.897 321.12 225.422 329.321 229.286 335.999C234.821 345.563 245.156 352 257 352Z" fill="#FFB964"/>
<path d="M253 396C259.627 396 265 390.627 265 384C265 377.373 259.627 372 253 372C246.373 372 241 377.373 241 384C241 390.627 246.373 396 253 396Z" fill="#C3875A"/>
<path d="M309 396C315.627 396 321 390.627 321 384C321 377.373 315.627 372 309 372C302.373 372 297 377.373 297 384C297 390.627 302.373 396 309 396Z" fill="#C3875A"/>
<path d="M177 208C168.178 208 161 215.178 161 224C161 232.822 168.178 240 177 240C185.822 240 193 232.822 193 224C193 215.178 185.822 208 177 208Z" fill="black"/>
<path d="M385 208C376.178 208 369 215.178 369 224C369 232.822 376.178 240 385 240C393.822 240 401 232.822 401 224C401 215.178 393.822 208 385 208Z" fill="black"/>
<path d="M526.363 76.176C519.034 71.883 510.14 72.221 503.155 77.058C503.1 77.096 503.046 77.135 502.992 77.174L420.284 137.539C418.22 139.044 417 141.445 417 144C417 171.148 399.789 176.045 399.056 176.24L399.161 176.214L399.25 176.59C397.517 176.262 395.745 176.079 393.946 176.029C391.222 171.093 388.162 166.384 384.766 161.918C384.959 161.137 385.038 160.314 384.982 159.468L376.982 39.468C376.976 39.38 376.969 39.292 376.96 39.204C374.579 15.389 358.894 0 337 0C314.944 0 297 17.944 297 40V92.687L281 108.687L265 92.687V40C265 17.944 247.056 0 225 0C203.106 0 187.421 15.389 185.04 39.204C185.029 39.312 185.02 39.421 185.014 39.53L177.955 159.529C177.928 159.997 177.949 160.457 178 160.907C174.297 165.671 170.973 170.715 168.041 176.029C166.55 176.071 165.079 176.21 163.632 176.445C163.374 176.356 163.11 176.278 162.839 176.214C162.66 176.172 145 171.682 145 144C145 141.445 143.78 139.044 141.716 137.538L59.008 77.173C58.954 77.134 58.9 77.095 58.845 77.057C51.859 72.22 42.965 71.882 35.637 76.175C28.339 80.451 24.302 88.337 25.101 96.755C28.975 137.585 61.071 191.336 84.63 206.7C94.323 213.022 117.634 219.41 129.036 222.29C129.02 222.859 129 223.427 129 224C129 247.641 143.32 267.331 162.095 271.27C165.579 291.509 170.137 309.44 174.203 325.422C179.851 347.619 184.729 366.788 184.729 384.271C184.729 426.62 204.733 464.765 236.935 483.819C237.143 483.942 237.358 484.037 237.571 484.139C238.509 485.701 239.486 487.229 240.522 488.697C251.131 503.724 265.505 512 281 512C296.495 512 310.869 503.724 321.477 488.697C322.514 487.229 323.49 485.7 324.429 484.139C324.645 484.036 324.863 483.939 325.074 483.814C357.27 464.758 377.271 426.615 377.271 384.271C377.271 367.267 382.176 347.794 387.855 325.247C391.892 309.222 396.415 291.245 399.892 271.273C418.673 267.34 433 247.646 433 224C433 223.427 432.98 222.859 432.964 222.291C444.366 219.411 467.677 213.022 477.37 206.701C500.929 191.337 533.026 137.585 536.899 96.756C537.698 88.337 533.661 80.451 526.363 76.176ZM93.37 193.299C73.338 180.235 44.358 130.338 41.029 95.244C40.73 92.095 42.814 90.515 43.724 89.981C44.641 89.443 47.046 88.395 49.671 90.167L129.105 148.142C130.125 167.722 138.327 178.76 145.912 184.839C139.602 190.212 134.644 197.718 131.771 206.479C118.042 202.956 99.714 197.437 93.37 193.299ZM323.766 334.963C319.179 340.706 312.339 344 305 344C303.873 344 302.757 343.91 301.655 343.751C305.234 341.032 308.494 337.602 311.291 333.527C313.791 329.884 312.865 324.904 309.223 322.404C305.579 319.903 300.6 320.829 298.1 324.472C295.401 328.404 289.591 335 281 335C272.409 335 266.599 328.404 263.9 324.473C261.4 320.83 256.419 319.903 252.777 322.405C249.134 324.905 248.208 329.885 250.709 333.528C253.506 337.603 256.767 341.033 260.345 343.752C259.243 343.91 258.127 344 257 344C249.661 344 242.821 340.706 238.234 334.963C233.578 329.133 231.95 321.789 233.651 314.282C235.564 305.841 242.529 298.789 250.984 296.736C252.997 296.247 255.021 295.999 257.002 295.999C263.914 295.999 270.298 298.947 274.978 304.3C276.497 306.038 278.693 307.035 281.001 307.035C283.309 307.035 285.505 306.038 287.024 304.3C291.704 298.947 298.088 295.999 305 295.999C306.98 295.999 309.005 296.247 311.018 296.736C319.472 298.789 326.438 305.84 328.351 314.282C330.05 321.789 328.422 329.134 323.766 334.963ZM229.324 348.867C236.732 355.99 246.558 360 257 360C265.28 360 273.237 357.438 280.012 352.593C280.667 352.125 281.333 352.125 281.987 352.593C288.763 357.438 296.72 360 305 360C315.442 360 325.268 355.99 332.676 348.867C335.517 356.15 337 363.999 337 372C337 391.898 324.156 407.026 316.5 414.273C305.299 424.876 291.033 432 281 432C262.323 432 225 406.061 225 372C225 363.998 226.483 356.149 229.324 348.867ZM281 496C270.852 496 261.119 490.129 253.595 479.47C245.473 467.964 241 452.526 241 436C241 434.529 241.047 433.059 241.119 431.593C254.12 441.84 268.841 448 281 448C293.064 448 307.852 441.868 320.882 431.605C320.954 433.067 321 434.533 321 436C321 452.526 316.527 467.964 308.405 479.47C300.881 490.129 291.148 496 281 496ZM393 256C392.949 256 392.9 256.007 392.849 256.008C392.686 256.01 392.525 256.02 392.365 256.032C392.259 256.04 392.154 256.049 392.05 256.061C391.891 256.08 391.735 256.105 391.579 256.133C391.472 256.152 391.365 256.172 391.26 256.195C391.114 256.228 390.97 256.266 390.826 256.306C390.715 256.337 390.604 256.369 390.494 256.405C390.36 256.449 390.229 256.499 390.098 256.55C389.986 256.593 389.874 256.637 389.765 256.686C389.639 256.742 389.516 256.803 389.394 256.865C389.288 256.919 389.181 256.973 389.077 257.032C388.955 257.101 388.836 257.175 388.718 257.25C388.622 257.311 388.526 257.372 388.433 257.437C388.311 257.522 388.194 257.612 388.077 257.704C387.994 257.768 387.912 257.832 387.833 257.899C387.713 258.001 387.598 258.107 387.484 258.216C387.414 258.282 387.344 258.348 387.277 258.417C387.163 258.534 387.055 258.655 386.948 258.778C386.887 258.848 386.827 258.918 386.769 258.989C386.667 259.115 386.572 259.246 386.478 259.378C386.422 259.458 386.365 259.536 386.311 259.618C386.227 259.746 386.149 259.878 386.072 260.012C386.017 260.108 385.963 260.202 385.911 260.301C385.847 260.425 385.787 260.551 385.729 260.678C385.676 260.794 385.624 260.911 385.576 261.031C385.531 261.146 385.489 261.262 385.448 261.38C385.4 261.518 385.355 261.657 385.314 261.799C385.283 261.907 385.256 262.018 385.23 262.128C385.193 262.28 385.16 262.432 385.133 262.587C385.124 262.638 385.109 262.687 385.101 262.738C381.636 284.436 376.698 304.041 372.341 321.338C366.401 344.918 361.272 365.282 361.272 384.27C361.272 411.907 351.642 437.359 335.216 455.163C336.384 448.976 337 442.55 337 436C337 431.64 336.729 427.268 336.193 423.005C335.987 421.364 335.297 419.903 334.286 418.746C345.311 405.85 353 389.623 353 372C353 358.227 349.476 344.784 342.816 333.032C345.23 326.001 345.669 318.317 343.953 310.747C340.679 296.299 329.232 284.697 314.792 281.189C311.544 280.4 308.25 280 304.998 280C296.306 280 287.894 282.904 280.999 288.144C274.103 282.904 265.692 280 257 280C253.749 280 250.454 280.4 247.206 281.189C232.766 284.696 221.32 296.298 218.045 310.747C216.33 318.317 216.768 326.001 219.182 333.032C212.524 344.784 209 358.226 209 372C209 388.348 215.595 404.652 227.711 418.75C226.701 419.907 226.013 421.367 225.807 423.005C225.271 427.268 225 431.64 225 436C225 442.55 225.616 448.977 226.786 455.165C210.36 437.361 200.73 411.909 200.73 384.271C200.73 364.785 195.623 344.715 189.709 321.477C185.329 304.263 180.364 284.752 176.903 262.757C176.895 262.703 176.879 262.651 176.869 262.597C176.842 262.442 176.809 262.289 176.773 262.138C176.747 262.028 176.719 261.919 176.689 261.811C176.648 261.667 176.602 261.525 176.553 261.385C176.514 261.27 176.473 261.156 176.428 261.044C176.379 260.92 176.325 260.799 176.27 260.678C176.214 260.556 176.157 260.434 176.096 260.316C176.041 260.212 175.984 260.109 175.925 260.007C175.852 259.881 175.778 259.756 175.699 259.634C175.64 259.544 175.578 259.456 175.515 259.369C175.427 259.245 175.338 259.123 175.243 259.005C175.178 258.924 175.11 258.845 175.041 258.767C174.942 258.652 174.842 258.539 174.736 258.432C174.661 258.355 174.583 258.281 174.505 258.206C174.399 258.105 174.292 258.006 174.181 257.912C174.094 257.838 174.004 257.767 173.914 257.697C173.805 257.612 173.695 257.528 173.581 257.448C173.481 257.378 173.379 257.313 173.275 257.247C173.163 257.176 173.051 257.106 172.935 257.04C172.827 256.978 172.715 256.921 172.603 256.865C172.484 256.805 172.366 256.746 172.244 256.692C172.132 256.642 172.018 256.597 171.905 256.552C171.775 256.501 171.645 256.452 171.512 256.408C171.403 256.372 171.293 256.34 171.182 256.308C171.037 256.266 170.891 256.228 170.744 256.195C170.641 256.172 170.536 256.153 170.431 256.133C170.273 256.104 170.113 256.079 169.952 256.06C169.851 256.048 169.749 256.039 169.646 256.031C169.482 256.018 169.318 256.009 169.152 256.006C169.102 256.007 169.052 256 169 256C155.766 256 145 241.645 145 224C145 206.355 155.766 192 169 192C170.423 192 171.757 191.624 172.915 190.973C173.073 190.982 173.231 191 173.389 191C176.299 191 179.106 189.407 180.52 186.637C188.146 171.701 199.267 159.074 213.572 149.108C217.197 146.583 218.089 141.596 215.563 137.971C213.037 134.346 208.05 133.455 204.426 135.98C201.113 138.288 197.954 140.729 194.939 143.285L200.977 40.639C202.595 24.979 211.344 16 225 16C238.233 16 249 26.767 249 40V96C249 98.122 249.843 100.157 251.343 101.657L262.952 113.266C257.6 114.007 252.261 115.063 246.967 116.454C242.694 117.577 240.14 121.951 241.263 126.225C242.386 130.498 246.762 133.055 251.034 131.929C260.953 129.322 271.036 128 281 128C293.583 128 306.187 130.072 318.461 134.157C319.299 134.436 320.151 134.569 320.988 134.569C324.339 134.569 327.461 132.447 328.577 129.093C329.973 124.901 327.705 120.371 323.514 118.976C315.465 116.297 307.281 114.407 299.043 113.269L310.656 101.656C312.156 100.156 312.999 98.121 312.999 95.999V40C312.999 26.766 323.765 16 336.999 16C350.664 16 359.416 24.99 361.026 40.67L367.916 144.017C365.317 141.771 362.608 139.614 359.782 137.554C356.212 134.951 351.208 135.736 348.605 139.306C346.002 142.876 346.787 147.88 350.357 150.483C364.041 160.458 374.67 172.936 381.95 187.57C383.348 190.382 386.179 192.009 389.119 192.009C389.77 192.009 390.427 191.921 391.075 191.757C391.693 191.91 392.335 192 393 192C406.234 192 417 206.355 417 224C417 241.645 406.234 256 393 256ZM520.971 95.245C517.642 130.339 488.662 180.235 468.63 193.3C462.294 197.432 443.962 202.954 430.229 206.479C427.355 197.718 422.398 190.212 416.088 184.84C423.672 178.761 431.875 167.723 432.895 148.143L512.329 90.168C514.954 88.395 517.359 89.444 518.276 89.982C519.186 90.515 521.27 92.095 520.971 95.245Z" fill="black"/>
<path d="M143.661 23.4217L142.911 22.5H141.722H18.3703H12.7793L16.5071 26.6669L219.441 253.501L10.1408 486.329L6.39099 490.5H12H136.51H137.681L138.431 489.6L281.29 318.173L424.148 489.6L424.898 490.5H426.069H550H555.619L551.857 486.326L341.984 253.501L545.491 26.6695L549.231 22.5H543.63H417.961H416.782L416.032 23.4098L278.985 189.652L143.661 23.4217Z" fill="#FF0101" stroke="black" stroke-width="5"/>
</svg>
